<?xml version="1.0" encoding="utf-8"?>
<!DOCTYPE svg PUBLIC "-//W3C//DTD SVG 20010904//EN" "http://www.w3.org/TR/2001/REC-SVG-20010904/DTD/svg10.dtd">
<svg version="1.2" baseProfile="tiny-ps" xmlns="http://www.w3.org/2000/svg" viewBox="0 0 500.000000 500.000000" xml:space="preserve">
<title>zorg</title>
<g transform="translate(0.000000,500.000000) scale(0.100000,-0.100000)" fill="#000000" stroke="none">
<path d="M0 2500 l0 -2500 2500 0 2500 0 0 2500 0 2500 -2500 0 -2500 0 0
-2500z m1800 860 l0 -70 -170 0 -170 0 0 -810 0 -810 170 0 170 0 0 -70 0 -70
-255 0 -255 0 0 950 0 950 255 0 255 0 0 -70z m1890 -880 l0 -950 -250 0 -250
0 0 70 0 70 165 0 165 0 0 810 0 810 -165 0 -165 0 0 70 0 70 250 0 250 0 0
-950z m-760 458 l0 -63 -318 -400 -318 -400 323 -3 323 -2 0 -80 0 -80 -440 0
-440 0 0 68 0 67 315 397 c173 219 315 400 315 403 0 3 -139 5 -310 5 l-310 0
0 75 0 75 430 0 430 0 0 -62z"/>
</g>
</svg>
