<svg xmlns="http://www.w3.org/2000/svg" data-name="Layer 1" viewBox="0 0 100 125" x="0px" y="0px"><title>Code file</title><path d="M84.32,30a2,2,0,0,0-.57-1.4L61.09,5.51a2,2,0,0,0-1.43-.6h-33a11,11,0,0,0-11,11V84.09a11,11,0,0,0,11,11H73.32a11,11,0,0,0,11-11ZM61.51,11.65,78.49,29h-15a2,2,0,0,1-2-2ZM73.32,91.09H26.68a7,7,0,0,1-7-7V15.91a7,7,0,0,1,7-7H57.51V27a6,6,0,0,0,6,6H80.32v51.1A7,7,0,0,1,73.32,91.09Z"/><path d="M52.95,44.52a2,2,0,0,0-2.32,1.62l-5.19,29a2,2,0,0,0,3.94.71l5.19-29A2,2,0,0,0,52.95,44.52Z"/><path d="M64.15,50.92A2,2,0,1,0,61,53.4L67,61l-6,7.6a2,2,0,0,0,3.14,2.48l7-8.84a2,2,0,0,0,0-2.48Z"/><path d="M38.66,50.59a2,2,0,0,0-2.81.33l-7,8.84a2,2,0,0,0,0,2.48l7,8.84A2,2,0,0,0,39,68.6L33,61l6-7.6A2,2,0,0,0,38.66,50.59Z"/></svg>