<svg xmlns:dc="http://purl.org/dc/elements/1.1/" xmlns:cc="http://creativecommons.org/ns#" xmlns:rdf="http://www.w3.org/1999/02/22-rdf-syntax-ns#" xmlns:svg="http://www.w3.org/2000/svg" xmlns="http://www.w3.org/2000/svg" xmlns:sodipodi="http://sodipodi.sourceforge.net/DTD/sodipodi-0.dtd" xmlns:inkscape="http://www.inkscape.org/namespaces/inkscape" version="1.1" x="0px" y="0px" viewBox="0 0 100 125"><title>Performance</title><g transform="translate(0,-952.36218)"><g transform="translate(7.0019695,959.32871)"><path style="text-indent:0;text-transform:none;direction:ltr;block-progression:tb;baseline-shift:baseline;color:#000000;enable-background:accumulate;" d="m 42.99803,-0.96653 c -24.27684,0 -43.9999993,19.7231 -43.9999993,44 0,24.2768 19.7231593,44 43.9999993,44 24.276841,0 44,-19.7232 44,-44 0,-24.2769 -19.723159,-44 -44,-44 z m 0,4 c 22.11486,0 40,17.8851 40,40 0,22.1149 -17.88514,40 -40,40 -22.11486,0 -39.9999994,-17.8851 -39.9999994,-40 0,-22.1149 17.8851394,-40 39.9999994,-40 z m -0.25,1.9688 c -0.97176,0.1222 -1.77284,1.0521 -1.75,2.0312 l 0.0312,6.9375 c -0.0149,1.0566 0.94327,2.0285 2,2.0285 1.05673,0 2.01494,-0.9719 2,-2.0285 l -0.0312,-6.9687 c 0.009,-1.1359 -1.12294,-2.1419 -2.25,-2 z m -18.91325,5.2294 c -0.74567,0.6108 -1.09696,1.7671 -0.58675,2.6143 l 3.5,6 c 0.5236,0.9081 1.82626,1.258 2.73437,0.7344 0.90812,-0.5236 1.25798,-1.8263 0.73438,-2.7344 l -3.5,-6 c -0.94334,-1.1098 -1.76793,-1.1605 -2.882,-0.6143 z m 35.41325,0.6143 -3.4375,6.0313 c -0.5236,0.9081 -0.17374,2.2108 0.73438,2.7344 0.90811,0.5236 2.21077,0.1737 2.73437,-0.7344 l 3.4375,-6.0313 c 0.48944,-1.347 0.129711,-2.0519 -0.80713,-2.8181 -1.16795,-0.4826 -1.86832,0.044 -2.66162,0.8181 z m -47.59375,12.1563 c -0.85858,0.051 -1.64375,0.7185 -1.8325497,1.5576 -0.18881,0.8391 0.2348497,1.7785 0.9887997,2.1924 l 6.03125,3.4687 c 0.908101,0.5235 2.2106,0.1736 2.73417,-0.7345 0.52356,-0.908 0.17382,-2.2105 -0.73417,-2.7342 -2.399259,-1.0627 -4.6679,-3.3273 -7.1875,-3.75 z m 61.5,0.2812 -6,3.5 c -0.90813,0.5318 -1.25055,1.8419 -0.71877,2.75 0.53178,0.9082 1.84189,1.2506 2.75002,0.7188 l 6,-3.5 c 1.05637,-1.0324 1.11053,-1.7381 0.7019,-2.862 -0.93112,-0.9371 -1.671039,-0.9839 -2.73315,-0.6068 z m -14.65625,1.5628 c -2.07443,1.042 -3.980269,2.7393 -5.625,4.0313 l -9.1875,9.1874 c -0.226889,-0.032 -0.45247,-0.031 -0.6875,-0.031 -2.73773,0 -5,2.2622 -5,5 0,2.7377 2.26227,5 5,5 2.73774,0 5,-2.2623 5,-5 0,-0.2391 -0.0292,-0.4881 -0.0625,-0.7188 l 9.1875,-9.1874 c 1.49464,-1.9582 2.95508,-3.5697 4.03125,-5.625 0.3024,-0.8323 -0.15686,-1.5462 -0.5,-2.1563 -0.74533,-0.6228 -1.32321,-0.6091 -2.15625,-0.5002 z m -44.5625,16.156 -6.9374994,0.031 c -1.05663,-0.015 -2.02848,0.9433 -2.02848,2 0,1.0567 0.97185,2.0149 2.02848,2 l 6.9374994,-0.031 c 1.05663,0.015 2.02848,-0.9433 2.02848,-2 0,-1.0567 -0.97185,-2.0149 -2.02848,-2 z m 65.0625,0 -6.96875,0.031 c -1.05515,0 -2.016329,0.9607 -2.008089,2.0158 0.008,1.0551 0.98438,2.0049 2.039339,1.9842 l 6.9375,-0.031 c 1.05663,0.015 2.02848,-0.9433 2.02848,-2 0,-1.0567 -0.97185,-2.0149 -2.02848,-2 z m -51.21875,18.0624 c -0.97225,0.107 -1.78704,1.0219 -1.78125,2 l 0,10 c 9e-5,1.0472 0.95283,1.9999 2,2 l 30,0 c 1.04717,-1e-4 1.99991,-0.9528 2,-2 l 0,-10 c -9e-5,-1.0472 -0.95283,-1.9999 -2,-2 -10.06697,0 -20.167789,0 -30.21875,0 z m 2.21875,4 6,0 0,6 -6,0 z m 10,0 6,0 0,6 -6,0 z m 10,0 6,0 0,6 -6,0 z" fill="#000000" fill-opacity="1" stroke="none" marker="none" visibility="visible" display="inline" overflow="visible"/></g></g></svg>