<?xml version="1.0" standalone="no"?>
<!DOCTYPE svg PUBLIC "-//W3C//DTD SVG 20010904//EN"
 "http://www.w3.org/TR/2001/REC-SVG-20010904/DTD/svg10.dtd">
<svg version="1.0" xmlns="http://www.w3.org/2000/svg"
 width="260.000000pt" height="260.000000pt" viewBox="0 0 260.000000 260.000000"
 preserveAspectRatio="xMidYMid meet">
<metadata>
Created by potrace 1.11, written by Peter Selinger 2001-2013
</metadata>
<g transform="translate(0.000000,260.000000) scale(0.100000,-0.100000)"
fill="#000000" stroke="none">
<path d="M0 1300 l0 -1300 1300 0 1300 0 0 1300 0 1300 -1300 0 -1300 0 0
-1300z m668 848 l-3 -73 -107 -3 -108 -3 0 -764 0 -765 110 0 110 0 0 -75 0
-75 -200 0 -200 0 0 915 0 915 200 0 201 0 -3 -72z m1652 -843 l0 -915 -195 0
-195 0 0 75 0 75 105 0 105 0 0 765 0 765 -105 0 -105 0 0 75 0 75 195 0 195
0 0 -915z m-610 456 l0 -60 -286 -343 c-158 -189 -304 -361 -325 -383 -22 -23
-39 -43 -39 -45 0 -3 155 -3 345 -2 l345 4 0 -74 0 -75 -182 -6 c-99 -4 -306
-7 -460 -7 l-278 0 0 39 c0 21 -3 52 -6 68 -5 27 20 60 315 406 177 207 321
380 321 383 0 4 -134 4 -299 0 -340 -8 -311 -16 -311 85 l0 59 193 3 c105 1
299 3 430 5 l237 2 0 -59z"/>
</g>
</svg>
