<svg xmlns="http://www.w3.org/2000/svg" data-name="Layer 1" viewBox="0 0 512 640" x="0px" y="0px"><title>Moon and stars</title><path d="M208.482,181.648a7,7,0,0,0-7.583-1.316A147.006,147.006,0,0,0,112.48,315.191c0,81.056,65.944,147,147,147a147.444,147.444,0,0,0,138.262-96.958,7,7,0,0,0-9.378-8.8,131.911,131.911,0,0,1-53,10.987c-73.337,0-133-59.663-133-133a132.586,132.586,0,0,1,7.911-45.286A7,7,0,0,0,208.482,181.648ZM335.36,381.421a146.375,146.375,0,0,0,42.918-6.359,133.489,133.489,0,0,1-118.8,73.129c-73.336,0-133-59.663-133-133a133.016,133.016,0,0,1,65.851-114.84,147.148,147.148,0,0,0-3.971,34.07C188.36,315.477,254.3,381.421,335.36,381.421Z"/><path d="M336.291,89.831l-33.445-5.309L287.424,53.678a7,7,0,0,0-12.522,0L259.48,84.522l-33.444,5.309a7,7,0,0,0-3.8,11.917l24.38,23.852-5.826,33.368a7,7,0,0,0,10.156,7.4l30.215-15.9,30.215,15.9a7,7,0,0,0,10.156-7.4L315.708,125.6l24.381-23.852a7,7,0,0,0-3.8-11.917Zm-33.008,28.338a7,7,0,0,0-2,6.208l4.01,22.966-20.869-10.985a7,7,0,0,0-6.521,0l-20.869,10.985,4.01-22.966a7,7,0,0,0-2-6.208l-17.064-16.693,23.25-3.691A7,7,0,0,0,270.393,94l10.77-21.542L291.934,94a7,7,0,0,0,5.163,3.782l23.25,3.691Z"/><path d="M479.587,166.426l-21.079-3.347-9.729-19.459a7,7,0,0,0-12.522,0l-9.73,19.459-21.078,3.347a7,7,0,0,0-3.8,11.917L417,193.36l-3.667,21a7,7,0,0,0,10.156,7.4l19.027-10.015,19.026,10.015a7,7,0,0,0,10.156-7.4l-3.667-21,15.352-15.017a7,7,0,0,0-3.8-11.917Zm-23.978,19.5a7,7,0,0,0-2,6.208l1.851,10.6-9.681-5.094a6.994,6.994,0,0,0-6.52,0l-9.681,5.094,1.851-10.6a7,7,0,0,0-2-6.208l-8.034-7.86,10.883-1.728a7,7,0,0,0,5.164-3.782l5.078-10.157L447.6,172.56a7,7,0,0,0,5.163,3.782l10.884,1.728Z"/><path d="M355.894,247.643a7,7,0,0,0-5.572-4.789l-16.989-2.7-7.848-15.694a7,7,0,0,0-12.522,0l-7.847,15.694-16.989,2.7a7,7,0,0,0-3.8,11.917l12.366,12.1-2.953,16.912a7,7,0,0,0,10.156,7.4l15.326-8.067,15.327,8.067a7,7,0,0,0,10.156-7.4l-2.953-16.912,12.365-12.1A7,7,0,0,0,355.894,247.643Zm-26.565,11.795a7,7,0,0,0-2,6.208l1.136,6.509-5.981-3.147a7,7,0,0,0-6.52,0l-5.981,3.147,1.137-6.509a7,7,0,0,0-2-6.208l-5.048-4.939,6.794-1.079a7,7,0,0,0,5.164-3.782l3.195-6.392,3.2,6.392a7,7,0,0,0,5.163,3.782l6.795,1.079Z"/><path d="M73.51,179.879l21.523,11.327a7,7,0,0,0,10.156-7.4l-4.149-23.76,17.366-16.988a7,7,0,0,0-3.8-11.917l-23.837-3.785-11-22a7,7,0,0,0-12.521,0l-11,22-23.837,3.785a7,7,0,0,0-3.8,11.917l17.366,16.988-4.149,23.76a7,7,0,0,0,10.156,7.4ZM48.357,142.787,62,140.621a7,7,0,0,0,5.164-3.782l6.347-12.7,6.348,12.7a7,7,0,0,0,5.164,3.782l13.642,2.166-10.049,9.83a7,7,0,0,0-2,6.208l2.332,13.358-12.176-6.409a7,7,0,0,0-6.521,0l-12.176,6.409,2.332-13.358a7,7,0,0,0-2-6.208Z"/></svg>